<svg width="600" height="600" viewBox="0 0 600 600" fill="none" xmlns="http://www.w3.org/2000/svg">
<path d="M341 44.456L500.808 136.721C526.179 151.369 541.808 178.439 541.808 207.735V392.265C541.808 421.561 526.179 448.631 500.808 463.279L341 555.544C315.629 570.192 284.371 570.192 259 555.544L99.1924 463.279C73.8215 448.631 58.1924 421.561 58.1924 392.265V207.735C58.1924 178.439 73.8215 151.369 99.1924 136.721L259 44.456C284.371 29.8081 315.629 29.8081 341 44.456Z" fill="#171717" stroke="white" stroke-width="36"/>
<path d="M219 226H241C268.614 226 291 248.386 291 276V374H269C241.386 374 219 351.614 219 324V226Z" fill="white"/>
<rect x="308" y="302" width="72" height="72" rx="36" fill="white"/>
</svg>
